<svg xmlns="http://www.w3.org/2000/svg" viewBox="0 0 78.23 79.93"><defs><style>.prefix__cls-4{fill-rule:evenodd}.prefix__cls-3,.prefix__cls-4{fill:#231f20}@media (prefers-color-scheme:dark){.prefix__cls-3,.prefix__cls-4{fill:#fff}}</style></defs><g id="prefix__Layer_2" data-name="Layer 2"><g id="prefix__Layer_1-2" data-name="Layer 1"><path d="M39.81 14.77a25.34 25.34 0 1025.34 25.34 25.39 25.39 0 00-25.34-25.34z" fill-rule="evenodd" fill="#ed1c24"/><path d="M61.31 41.28c0-12.33-9.53-22.6-21.69-22.6S18.3 29 18.21 41.28z" fill="#fff" fill-rule="evenodd"/><path class="prefix__cls-3" d="M18.2 17.47l-5.55-7L16 7.8a1.71 1.71 0 011.33-.37 1.77 1.77 0 011.22.67L20 9.88a1.78 1.78 0 01.38 1.33 1.76 1.76 0 01-.68 1.21l-2.4 1.9 1.89 2.39a.6.6 0 01.12.45.58.58 0 01-.22.4.6.6 0 01-.46.13.54.54 0 01-.43-.22zm-1.68-4.1l2.4-1.89a.63.63 0 00.23-.41.55.55 0 00-.13-.44l-1.4-1.78a.62.62 0 00-.85-.1l-2.4 1.9zM26.09 10.67l-.68-1.79a.61.61 0 010-.46.64.64 0 01.33-.32.57.57 0 01.46 0 .58.58 0 01.32.33l.69 1.8a.53.53 0 00.31.33.59.59 0 00.47 0l1.14-.44a.58.58 0 00.35-.32.57.57 0 000-.46L27 2.71a.57.57 0 010-.46.54.54 0 01.32-.31.58.58 0 01.48 0 .61.61 0 01.33.34l2.52 6.63a1.71 1.71 0 01-.06 1.4 1.76 1.76 0 01-1 .95l-1.14.44a1.85 1.85 0 01-2.36-1.06zM36.71 8.76L39 .46a.59.59 0 01.6-.46.54.54 0 01.58.37l2.54 8.35a.57.57 0 010 .18.62.62 0 01-.16.43.59.59 0 01-.4.18.58.58 0 01-.61-.43l-.5-1.63h-2.76l-.5 1.77a.35.35 0 01-.18.22.6.6 0 01-.34.11.64.64 0 01-.45-.17.7.7 0 01-.15-.38.57.57 0 01.04-.24zm2.93-6l-1 3.48h2zM51.5 1.66l4.58 1.69a.62.62 0 01.34.32.61.61 0 010 .46.57.57 0 01-.32.34.57.57 0 01-.46 0L54 3.87l-2.47 6.67 1.71.64a.55.55 0 01.34.31.57.57 0 010 .46.6.6 0 01-.32.34.57.57 0 01-.46 0l-4.58-1.69a.6.6 0 01-.34-.32.61.61 0 010-.46.58.58 0 01.31-.34.59.59 0 01.47 0l1.74.65 2.46-6.68-1.78-.65a.53.53 0 01-.34-.31.57.57 0 010-.46.58.58 0 01.26-.35.57.57 0 01.5-.02zM62.74 9.08l1.07-1.23 4.61 4-1.08 1.25a.6.6 0 01-.42.2.62.62 0 01-.64-.56.59.59 0 01.13-.45l.29-.29-.92-.79L60.72 17a.55.55 0 01-.41.21.58.58 0 01-.44-.15.62.62 0 01-.22-.42.59.59 0 01.15-.44l5.06-5.84-.93-.8-.28.32a.55.55 0 01-.41.21.57.57 0 01-.43-.15.54.54 0 01-.21-.41.56.56 0 01.14-.45z"/><path class="prefix__cls-4" d="M9.27 27.45c-.28.2-.55.55-1 .44-.16-.75-.71-.48-1-.52a1.91 1.91 0 010-.47l1.22-.12v-1.85l-4.05-.12v-.39l2.87-.12c.4-.08.79-.12 1.18-.16a9.63 9.63 0 01.08-1.06 1.67 1.67 0 001.22-.5c0-.12 0-.13-3.78-.13 0-.51 0-.51.12-.51l4.92-.24c.2.2.55.32.39.83a4.71 4.71 0 00-2.08 1.22v.35h2.68c.43-.35 1.61-.94 1.61.44l-2.4.23c0 .12 0 .12-1.85.12v2.52zM5.5 20.21c-.12 0-.21 0-.21-.32h-.35a5.81 5.81 0 01-.79 2 2.3 2.3 0 00.16.39l.69-.1a11 11 0 01.51-1.26c2.24-.08 4.49-.12 6.73-.16a9.46 9.46 0 00-.27 1c.27 0 .27 0 1.61-.67-.43-2.2-2.05-.47-2.68-1.1.48-.67 1.27-1.18 1.38-1.46a1.91 1.91 0 00-1-.55c-.39.71-.71 1.45-1.07 2.2zm1-.12a19.43 19.43 0 00-1-1.69.4.4 0 01.2-.16A1.51 1.51 0 017 20.09zm2.28-.39c-.78 0-1.16-1.7-1.2-1.89A1.44 1.44 0 019 19.62a.58.58 0 00-.28.08zM3.81 33.7H.2a1.72 1.72 0 010-.43c1.17-.08 2.34-.16 3.55-.2 0-1 .08-1.95.16-2.88l.89.11a11.15 11.15 0 00-.11 2.77 13.56 13.56 0 003.12 0 3.89 3.89 0 01.35-.42c.43 0 .55.11 1.21.58a1.17 1.17 0 00-.08.35c-1.4 0-2.81.12-4.18.2.71 2.46 1.68 3.47 4.14 4.92a.73.73 0 000 .27c-2.69 1.06-4-3-4.6-4.45-.78 2.55-1.92 4.42-4.65 5.24.27-.86 1.25-1.25 2.07-1.83a9 9 0 001.74-4.23zM3.2 53.09c-.08-1.25-.12-2.5-.16-3.75a2.38 2.38 0 00-.12-.27c-.58.66-1.13 1.33-1.68 2 0-1.48 1.14-2.73 1.61-4.06C2.3 47 1.75 47 1.21 47v-.39c.58-.08 1.17-.12 1.79-.16V45l-1.76.23a1 1 0 010-.27c1.09-.7 2.77-2 4.21-1.17v.43c-.54.15-1.09.31-1.6.47v1.68c.59 0 .67-.36 1.21-.4.24.2.47.4.74.59v.27L3.82 47l.12.58c.74.39 1.21.2 1.21 1.45a3.77 3.77 0 00-.62-.03c-.36-.55-.4-.43-.75-.51v4.42a2.36 2.36 0 00-.62.19zM8.12 53v-3.54c-.51 0-.51 0-.51.12-2.58.54-2.58.54-3.08.51a.93.93 0 01-.08-.32c.89-.58 2.26-.62 3.55-.9v-5.74l1 .12a2.27 2.27 0 000 .43c-.58.59-.19 3.55-.19 4.92h.59a2.77 2.77 0 01.27-.66c.43.07.74.15.74 1.05l-1.56.47c0 1-.08 2.15-.12 3.24a3.63 3.63 0 00-.66.27zm-2.39-6.2v-.27a1.43 1.43 0 01.43-.08c1.1.78 1.1.55 1.25 2-1.25-.23-1.36-1.6-1.68-1.68zm1.29-1c-.5-.71-1.09-1.29-1.09-1.91.67.11 1.76.42 1.56 1.79l-.49.15zM5.83 62.66h3.79v-6.44H5.95a2 2 0 010-.5l4.69-.12a15.91 15.91 0 002.73-.55c.12.12.78.31.62 1a4.91 4.91 0 00-.78 0c-.94 0-1.83.08-2.73.15v6.17h2.73c.71-.54.67-.74 1.72 0 0 .43 0 .43-.15.55l-6.49.12h-2.5v-.47zM29 78.21v-9.14a9.65 9.65 0 011.06.15 8.6 8.6 0 00-.2 1.88c.35.23.7.47 1.09.7a8.8 8.8 0 00.08 1h-.35c-.43-.63-.62-.79-1-.9 0 .27 0 .55.07.86a49.27 49.27 0 000 5.7 2.57 2.57 0 00-.15.55c-.2 0-.39.08-.55.11 0-.31-.16-.47-.08-.89zm-1-3.79a.87.87 0 01-.2-.12 11.1 11.1 0 01.46-2.3 1.85 1.85 0 01.39 0c0 .9.39 1.8-.7 2.35zm2.77-1.64h.35l2.11-.12a1 1 0 010-.35 4.27 4.27 0 01-1.87-.24 1.42 1.42 0 010-.35c1.65-.07 1.65-.07 1.84-.19V71l-2.38-.12v-.39c.78-.11 1.56-.19 2.38-.27 0-1.21 0-1.33 1.17-1.06-.11.36-.19.75-.27 1.14.82 0 1.44-.24 2.54-.32a.83.83 0 01.31.86l-2.79.16a2.93 2.93 0 000 .59c.58 0 1.48-.55 2.42 0a2.83 2.83 0 000 .58l-2.46.12v.39l2.77-.12c.28.12.23.43.23.78l-6.52.12c0-.23.08-.47.12-.66zm.94 4.64v-3.67c1 .08 2 .24 3.32.24.35-.28.58-.32 1.21.15a1.83 1.83 0 000 .47.72.72 0 00-.28.2c-.08 1.29-.11 2.58-.15 3.9a.89.89 0 01-.86.31c-.24-.7-.63-.5-.9-.58a1 1 0 010-.35 7.38 7.38 0 01.94-.16h.15v-1.17c-2.73 0-2.73 0-2.73.12a8.58 8.58 0 01-.19 2.22l-.63.12v-1.8zm3.24-2.34c0 .12 0 .12-2.46.12 0-.51 0-.51.12-.51h2.46l-.12.35zm.12.63h.15v.54h-2.94a.67.67 0 01.16-.27 1.68 1.68 0 01.23-.27zM43.45 77.08v-.24h1.8v-.15c0-2.39 0-2.39-.15-2.42-.47.66-.94 1.33-1.41 2a6.39 6.39 0 00-.78.78 10.6 10.6 0 01-1.84 1.4c0-1.13 1.1-1.64 1.76-2.34.59-.9 1.17-1.8 1.8-2.69.12 0 .12 0 .12-.51-2.47 0-2.47 0-2.47.12-.78 0-.78 0-1.05-.2v-.31c1.21-.08 2.42-.12 3.63-.16a1.2 1.2 0 01.39 0c0-.74 0-1.48.08-2.18.58 0 .58 0 .86.15v2a12.35 12.35 0 002.85 0c.43-.43 1.68-.55 1.4.58-1.32 0-2.65.12-3.94.2 1.06 2 2 2.73 4.22 4a1 1 0 000 .35c-1.25.7-1.6 0-2.23-.47-.31-.31-.62-.62-.94-.9-.42-.66-.86-1.33-1.28-2a1 1 0 01-.16-.23v2.81h.7a1.14 1.14 0 01.31-.31 1 1 0 011.06.86l-2.11.23c0 .62.19 2.38-.78 2.46l-.12-2.46-1.76-.12a.71.71 0 010-.27zM63.52 70.67c-.5-2.61 0-5.74-.2-8.32a4.61 4.61 0 01-.54-.23.94.94 0 010-.31 1.82 1.82 0 011.56.39c-.07.94-.11 1.87-.16 2.85.79.16 3.72.7 3.4 2.42H67a6.21 6.21 0 00-2.7-1.76c-.47.24-.19 3.83-.19 4.85-.2 0-.39.08-.55.11zM67.35 64.42c-1.09-1.21-1.09-1.21-1.14-1.48a3.41 3.41 0 011.49.47c0 .31.12.66.19 1zM68.6 63.64c-.47-.43-.9-.85-1.33-1.29 1.09-.11 1.52-.07 1.72 1.29zM69.49 60.33a2.06 2.06 0 01-1.13-1.8c.31 0 .43.08.78.43 2 0 5.5-3.55 7-4.88h.35c-.35 1.45-5.74 5.86-7 6.25zM69.88 55.41a3.39 3.39 0 00-1.37-1.84 1.84 1.84 0 01-.07-.47c1 .24 2.3.47 2.06 2.19l-.62.12zM72.18 50.63a1 1 0 010-.35c1.91-1.49 3.86-3.12 4.64-5.51-1.29.12-6 1.45-5.66-.62 2 1.29 5.23-1.21 7 .27a1.46 1.46 0 000 .43 1.42 1.42 0 00-.43.2c-1.29 2.34-3 4.72-5.58 5.58zM72.49 43.09a1.24 1.24 0 01-.59-1.25 13.11 13.11 0 005 0c.2.08.43.16.67.28 0 .19.07.39.12.59a30.56 30.56 0 00-5.2.38zM73.76 29.83c-.12-.23-.63-.58-.63-.74.43 0 1.49-.23 1.49.86a.87.87 0 00-.2.12v3.67c0 2.42.12 3 0 4a2.35 2.35 0 00-.51.15v-8.06zM69.91 24.7c-.08-1.33-.12-2.62-.16-3.91-1.6 0-3.67 1.06-3.67-.89a20.23 20.23 0 003.63.23 1.58 1.58 0 00-.5-1.8V18a2.92 2.92 0 011.48.43c-.08.55-.12 1.1-.16 1.68l2.35-.11c.12-.11.23-.23.35-.35a1.69 1.69 0 01.39.08c.31.24.47.24.58.94h-3.67c0 1.25.47 4.29-.39 5.62a3.44 3.44 0 00-.66 0 3.43 3.43 0 00-1.29-1.56v-.47c1.41.78 1.41.78 1.68.82a1 1 0 010-.35zm-3.67.74a7.49 7.49 0 01-.2-.78 35.37 35.37 0 012.15-3c0 .93-.82 3.51-2 3.82zm7.3-.39a7.29 7.29 0 00-2-2.93 1.58 1.58 0 010-.39A3.31 3.31 0 0174.05 25a2 2 0 00-.51.08zm-.21-5.36c-1.68-1.33 0-3.28 1.37-1.91 0 1 .19 1.41-1 2a1.59 1.59 0 00-.39-.08zm0-.51a1.32 1.32 0 01-.2-.9c.39-.4.43-.47 1.14-.08a3.3 3.3 0 000 .7c-.23.16-.23.16-.89.28zM54.53 75.69V67.1c1.25.62 4.37-.43 5.23.43a68.25 68.25 0 00-.12 7.34c-.16.2-.16.2-.66.27a7.54 7.54 0 01-.16-.86h-3.43c-.12.44-.24.91-.32 1.37a2.28 2.28 0 00-.54 0zm4.29-5.31h-3.55v-2.23a18.71 18.71 0 013.51 0v2.23zm-3.51 3.32v-2.58c1.17 0 2.34-.08 3.55-.08v2.51c-1.21 0-2.38.07-3.55.15zM23 68.16a3 3 0 00-.63.28 1.85 1.85 0 00-1-.59 1.59 1.59 0 01-.08-.39 9.65 9.65 0 011.05-.19c.12 0 .12 0 .12-1.84h-1.79v.16a13.41 13.41 0 000 3 11.4 11.4 0 002.74-.12 2.36 2.36 0 00.39.23 8.21 8.21 0 01-1.06 2.85 2.57 2.57 0 001.61 1l-.24.58c-1.09.39-1.56-.74-2-.74-.51.59-1.52 1.6-2.22 1.6-.05-1.09-.08-2.15-.08-3.2.11 0 .11 0 .11-.78-.7.08-1.4.16-2.07.27h-.27a6.56 6.56 0 000 .9h.82c.27-.54 1.1-.39 1.29.51-.7.08-1.41.15-2.11.27 0 1.92 0 1.92-.2 2.15a2.88 2.88 0 00-.58 0c0-.74-.08-1.48-.08-2.19-.55-.08-1.09-.12-1.6-.15a2.27 2.27 0 01.08-.55h1.52v-1c-.58 0-1.17-.07-1.71-.07v-.43a5.81 5.81 0 01.89-.2 2.69 2.69 0 00-.35-1.48l-.89-.04v-.43c.66 0 1.33-.08 2-.08v-.9h-1.57a3 3 0 010-.62h1.52v-1.55a8.39 8.39 0 011 .15 11.83 11.83 0 00-.16 1.25 1.74 1.74 0 001.06-.35l.82.47v.39l-1.88.23a5.58 5.58 0 00.08.78c.78 0 1.09-.35 2.19 0v-2.61a12.72 12.72 0 003.24 0 5.27 5.27 0 010 3.39zm-4.73 1.37c.31-.86.55-1.41 1.49-1.56-.08.51-.12 1-.16 1.52a1 1 0 00-1.33 0zm-1.64.08a8.08 8.08 0 00-.35-1.52 3.89 3.89 0 011.76 0c-.2.48-.35.94-.51 1.41a6.41 6.41 0 00-.9.08zM22 70.86c-.62-1.13-.62-1.13-.7-1.6l1.4-.12-.47 1.72zm-1.33 2.07c0-1.17-.07-2.34-.07-3.52.89 1.8 1.6 1.84.07 3.52z"/></g></g></svg>
